<?xml version="1.0" encoding="UTF-8"?>
<svg version="1.1" xmlns="http://www.w3.org/2000/svg" width="160" height="160">
<path d="M0 0 C13.2 0 26.4 0 40 0 C40 3.3 40 6.6 40 10 C43.3 10 46.6 10 50 10 C50 13.3 50 16.6 50 20 C53.3 20 56.6 20 60 20 C60 33.2 60 46.4 60 60 C56.7 60 53.4 60 50 60 C50 66.6 50 73.2 50 80 C46.7 80 43.4 80 40 80 C40 83.3 40 86.6 40 90 C36.7 90 33.4 90 30 90 C30 93.3 30 96.6 30 100 C26.7 100 23.4 100 20 100 C20 103.3 20 106.6 20 110 C13.4 110 6.8 110 0 110 C0 113.3 0 116.6 0 120 C-13.2 120 -26.4 120 -40 120 C-40 116.7 -40 113.4 -40 110 C-46.6 110 -53.2 110 -60 110 C-60 103.4 -60 96.8 -60 90 C-63.3 90 -66.6 90 -70 90 C-70 83.4 -70 76.8 -70 70 C-66.7 70 -63.4 70 -60 70 C-60 63.4 -60 56.8 -60 50 C-56.7 50 -53.4 50 -50 50 C-50 46.7 -50 43.4 -50 40 C-43.4 40 -36.8 40 -30 40 C-30 36.7 -30 33.4 -30 30 C-26.7 30 -23.4 30 -20 30 C-20 26.7 -20 23.4 -20 20 C-16.7 20 -13.4 20 -10 20 C-10 16.7 -10 13.4 -10 10 C-6.7 10 -3.4 10 0 10 C0 6.7 0 3.4 0 0 Z " fill="#6D3D2C" transform="translate(90,30)"/>
<path d="M0 0 C3.3 0 6.6 0 10 0 C10 9.9 10 19.8 10 30 C6.7 30 3.4 30 0 30 C0 36.6 0 43.2 0 50 C-3.3 50 -6.6 50 -10 50 C-10 53.3 -10 56.6 -10 60 C-13.3 60 -16.6 60 -20 60 C-20 63.3 -20 66.6 -20 70 C-23.3 70 -26.6 70 -30 70 C-30 73.3 -30 76.6 -30 80 C-36.6 80 -43.2 80 -50 80 C-50 83.3 -50 86.6 -50 90 C-63.2 90 -76.4 90 -90 90 C-90 86.7 -90 83.4 -90 80 C-96.6 80 -103.2 80 -110 80 C-110 73.4 -110 66.8 -110 60 C-106.7 60 -103.4 60 -100 60 C-100 63.3 -100 66.6 -100 70 C-83.5 70 -67 70 -50 70 C-50 66.7 -50 63.4 -50 60 C-43.4 60 -36.8 60 -30 60 C-30 53.4 -30 46.8 -30 40 C-26.7 40 -23.4 40 -20 40 C-20 36.7 -20 33.4 -20 30 C-16.7 30 -13.4 30 -10 30 C-10 26.7 -10 23.4 -10 20 C-6.7 20 -3.4 20 0 20 C0 13.4 0 6.8 0 0 Z " fill="#3F2115" transform="translate(140,60)"/>
<path d="M0 0 C13.2 0 26.4 0 40 0 C40 3.3 40 6.6 40 10 C43.3 10 46.6 10 50 10 C50 13.3 50 16.6 50 20 C53.3 20 56.6 20 60 20 C60 23.3 60 26.6 60 30 C56.7 30 53.4 30 50 30 C50 36.6 50 43.2 50 50 C46.7 50 43.4 50 40 50 C40 46.7 40 43.4 40 40 C36.7 40 33.4 40 30 40 C30 36.7 30 33.4 30 30 C13.5 30 -3 30 -20 30 C-20 26.7 -20 23.4 -20 20 C-16.7 20 -13.4 20 -10 20 C-10 16.7 -10 13.4 -10 10 C-6.7 10 -3.4 10 0 10 C0 6.7 0 3.4 0 0 Z " fill="#744130" transform="translate(90,30)"/>
<path d="M0 0 C6.6 0 13.2 0 20 0 C20 3.3 20 6.6 20 10 C26.6 10 33.2 10 40 10 C40 16.6 40 23.2 40 30 C33.4 30 26.8 30 20 30 C20 33.3 20 36.6 20 40 C23.3 40 26.6 40 30 40 C30 43.3 30 46.6 30 50 C16.8 50 3.6 50 -10 50 C-10 46.7 -10 43.4 -10 40 C-13.3 40 -16.6 40 -20 40 C-20 36.7 -20 33.4 -20 30 C-13.4 30 -6.8 30 0 30 C0 26.7 0 23.4 0 20 C3.3 20 6.6 20 10 20 C10 16.7 10 13.4 10 10 C6.7 10 3.4 10 0 10 C0 6.7 0 3.4 0 0 Z " fill="#8A503B" transform="translate(50,80)"/>
<path d="M0 0 C3.3 0 6.6 0 10 0 C10 3.3 10 6.6 10 10 C13.3 10 16.6 10 20 10 C20 13.3 20 16.6 20 20 C23.3 20 26.6 20 30 20 C30 23.3 30 26.6 30 30 C23.4 30 16.8 30 10 30 C10 26.7 10 23.4 10 20 C3.4 20 -3.2 20 -10 20 C-10 23.3 -10 26.6 -10 30 C-6.7 30 -3.4 30 0 30 C0 33.3 0 36.6 0 40 C-3.3 40 -6.6 40 -10 40 C-10 43.3 -10 46.6 -10 50 C-16.6 50 -23.2 50 -30 50 C-30 53.3 -30 56.6 -30 60 C-33.3 60 -36.6 60 -40 60 C-40 53.4 -40 46.8 -40 40 C-36.7 40 -33.4 40 -30 40 C-30 33.4 -30 26.8 -30 20 C-26.7 20 -23.4 20 -20 20 C-20 16.7 -20 13.4 -20 10 C-13.4 10 -6.8 10 0 10 C0 6.7 0 3.4 0 0 Z " fill="#4D2718" transform="translate(60,60)"/>
<path d="M0 0 C3.3 0 6.6 0 10 0 C10 3.3 10 6.6 10 10 C13.3 10 16.6 10 20 10 C20 16.6 20 23.2 20 30 C13.4 30 6.8 30 0 30 C0 33.3 0 36.6 0 40 C-3.3 40 -6.6 40 -10 40 C-10 36.7 -10 33.4 -10 30 C-13.3 30 -16.6 30 -20 30 C-20 26.7 -20 23.4 -20 20 C-13.4 20 -6.8 20 0 20 C0 13.4 0 6.8 0 0 Z " fill="#703F2E" transform="translate(90,90)"/>
<path d="M0 0 C3.3 0 6.6 0 10 0 C10 3.3 10 6.6 10 10 C13.3 10 16.6 10 20 10 C20 13.3 20 16.6 20 20 C16.7 20 13.4 20 10 20 C10 26.6 10 33.2 10 40 C6.7 40 3.4 40 0 40 C0 36.7 0 33.4 0 30 C-3.3 30 -6.6 30 -10 30 C-10 26.7 -10 23.4 -10 20 C-13.3 20 -16.6 20 -20 20 C-20 17.03 -20 14.06 -20 11 C-17.703463 9.8517315 -16.41686833 9.88438825 -13.8671875 9.90234375 C-13.06152344 9.90556641 -12.25585938 9.90878906 -11.42578125 9.91210938 C-10.58402344 9.92048828 -9.74226563 9.92886719 -8.875 9.9375 C-8.02550781 9.94201172 -7.17601563 9.94652344 -6.30078125 9.95117188 C-4.20049091 9.96297126 -2.1002367 9.98090694 0 10 C0 6.7 0 3.4 0 0 Z " fill="#6B3B2A" transform="translate(130,40)"/>
<path d="M0 0 C6.6 0 13.2 0 20 0 C20 3.3 20 6.6 20 10 C23.3 10 26.6 10 30 10 C30 13.3 30 16.6 30 20 C33.3 20 36.6 20 40 20 C40 26.6 40 33.2 40 40 C36.7 40 33.4 40 30 40 C30 36.7 30 33.4 30 30 C26.7 30 23.4 30 20 30 C20 26.7 20 23.4 20 20 C16.7 20 13.4 20 10 20 C10 16.7 10 13.4 10 10 C6.7 10 3.4 10 0 10 C0 6.7 0 3.4 0 0 Z " fill="#8F553F" transform="translate(70,60)"/>
<path d="M0 0 C3.3 0 6.6 0 10 0 C10 9.9 10 19.8 10 30 C6.7 30 3.4 30 0 30 C0 36.6 0 43.2 0 50 C-3.3 50 -6.6 50 -10 50 C-11.11984119 46.64047644 -11.028066 44.33089543 -10.87890625 40.80078125 C-10.83056641 39.59228516 -10.78222656 38.38378906 -10.73242188 37.13867188 C-10.67634766 35.87603516 -10.62027344 34.61339844 -10.5625 33.3125 C-10.51029297 32.03826172 -10.45808594 30.76402344 -10.40429688 29.45117188 C-10.27449555 26.30053961 -10.1395244 23.15021423 -10 20 C-6.7 20 -3.4 20 0 20 C0 13.4 0 6.8 0 0 Z " fill="#2A150D" transform="translate(140,60)"/>
<path d="M0 0 C6.6 0 13.2 0 20 0 C20 3.3 20 6.6 20 10 C16.7 10 13.4 10 10 10 C10 13.3 10 16.6 10 20 C3.4 20 -3.2 20 -10 20 C-10 23.3 -10 26.6 -10 30 C-13.3 30 -16.6 30 -20 30 C-20 23.4 -20 16.8 -20 10 C-13.4 10 -6.8 10 0 10 C0 6.7 0 3.4 0 0 Z " fill="#764331" transform="translate(40,90)"/>
<path d="M0 0 C3.3 0 6.6 0 10 0 C10 3.3 10 6.6 10 10 C13.3 10 16.6 10 20 10 C20 13.3 20 16.6 20 20 C23.3 20 26.6 20 30 20 C30 23.3 30 26.6 30 30 C23.4 30 16.8 30 10 30 C10 26.7 10 23.4 10 20 C6.7 20 3.4 20 0 20 C0 13.4 0 6.8 0 0 Z " fill="#542E1D" transform="translate(60,60)"/>
<path d="M0 0 C13.2 0 26.4 0 40 0 C40 3.3 40 6.6 40 10 C26.8 10 13.6 10 0 10 C0 6.7 0 3.4 0 0 Z " fill="#29160E" transform="translate(50,140)"/>
<path d="M0 0 C13.2 0 26.4 0 40 0 C40 3.3 40 6.6 40 10 C26.8 10 13.6 10 0 10 C0 6.7 0 3.4 0 0 Z " fill="#4E2617" transform="translate(90,30)"/>
<path d="M0 0 C3.3 0 6.6 0 10 0 C10 3.3 10 6.6 10 10 C13.3 10 16.6 10 20 10 C20 13.3 20 16.6 20 20 C13.4 20 6.8 20 0 20 C0 13.4 0 6.8 0 0 Z " fill="#29160C" transform="translate(30,120)"/>
<path d="M0 0 C3.3 0 6.6 0 10 0 C10 6.6 10 13.2 10 20 C3.4 20 -3.2 20 -10 20 C-10 16.7 -10 13.4 -10 10 C-6.7 10 -3.4 10 0 10 C0 6.7 0 3.4 0 0 Z " fill="#512B1B" transform="translate(80,40)"/>
<path d="M0 0 C6.6 0 13.2 0 20 0 C20 3.3 20 6.6 20 10 C13.4 10 6.8 10 0 10 C0 6.7 0 3.4 0 0 Z " fill="#29160D" transform="translate(90,130)"/>
<path d="M0 0 C3.3 0 6.6 0 10 0 C10 6.6 10 13.2 10 20 C6.7 20 3.4 20 0 20 C0 13.4 0 6.8 0 0 Z " fill="#653828" transform="translate(100,100)"/>
<path d="M0 0 C3.3 0 6.6 0 10 0 C10 6.6 10 13.2 10 20 C6.7 20 3.4 20 0 20 C0 13.4 0 6.8 0 0 Z " fill="#4C271A" transform="translate(20,100)"/>
<path d="M0 0 C6.6 0 13.2 0 20 0 C20 3.3 20 6.6 20 10 C13.4 10 6.8 10 0 10 C0 6.7 0 3.4 0 0 Z " fill="#6E402E" transform="translate(110,70)"/>
<path d="M0 0 C0.02688151 1.64574566 0.04634123 3.29161413 0.0625 4.9375 C0.07410156 5.85402344 0.08570312 6.77054688 0.09765625 7.71484375 C0 10 0 10 -1 11 C-2.41570123 11.08651611 -3.835595 11.10704904 -5.25390625 11.09765625 C-6.10791016 11.09443359 -6.96191406 11.09121094 -7.84179688 11.08789062 C-8.73962891 11.07951172 -9.63746094 11.07113281 -10.5625 11.0625 C-11.46419922 11.05798828 -12.36589844 11.05347656 -13.29492188 11.04882812 C-15.52997589 11.03700244 -17.76499602 11.01906638 -20 11 C-20 7.7 -20 4.4 -20 1 C-16.8541831 0.83301825 -13.70834772 0.66639938 -10.5625 0.5 C-9.66466797 0.45230469 -8.76683594 0.40460937 -7.84179688 0.35546875 C-6.98779297 0.31035156 -6.13378906 0.26523437 -5.25390625 0.21875 C-4.46314697 0.17685547 -3.6723877 0.13496094 -2.85766602 0.09179688 C-1.90578081 0.04475931 -0.95304668 0 0 0 Z " fill="#955C44" transform="translate(110,49)"/>
<path d="M0 0 C3.3 0 6.6 0 10 0 C10.33 3.3 10.66 6.6 11 10 C7.37 10 3.74 10 0 10 C0 6.7 0 3.4 0 0 Z " fill="#955C44" transform="translate(40,120)"/>
<path d="M0 0 C3.3 0 6.6 0 10 0 C10 3.3 10 6.6 10 10 C6.7 10 3.4 10 0 10 C0 6.7 0 3.4 0 0 Z " fill="#512F1F" transform="translate(50,130)"/>
<path d="M0 0 C3.3 0 6.6 0 10 0 C10 3.3 10 6.6 10 10 C6.7 10 3.4 10 0 10 C0 6.7 0 3.4 0 0 Z " fill="#7B4735" transform="translate(70,120)"/>
<path d="M0 0 C3.3 0 6.6 0 10 0 C10 3.3 10 6.6 10 10 C6.7 10 3.4 10 0 10 C0 6.7 0 3.4 0 0 Z " fill="#4E2716" transform="translate(30,120)"/>
<path d="M0 0 C3.3 0 6.6 0 10 0 C10 3.3 10 6.6 10 10 C6.7 10 3.4 10 0 10 C0 6.7 0 3.4 0 0 Z " fill="#955C44" transform="translate(60,110)"/>
<path d="M0 0 C3.3 0 6.6 0 10 0 C10 3.3 10 6.6 10 10 C6.7 10 3.4 10 0 10 C0 6.7 0 3.4 0 0 Z " fill="#28160D" transform="translate(120,110)"/>
<path d="M0 0 C3.3 0 6.6 0 10 0 C10 3.3 10 6.6 10 10 C6.7 10 3.4 10 0 10 C0 6.7 0 3.4 0 0 Z " fill="#552E1D" transform="translate(70,110)"/>
<path d="M0 0 C3.3 0 6.6 0 10 0 C10 3.3 10 6.6 10 10 C6.7 10 3.4 10 0 10 C0 6.7 0 3.4 0 0 Z " fill="#955C44" transform="translate(30,110)"/>
<path d="M0 0 C3.3 0 6.6 0 10 0 C10 3.3 10 6.6 10 10 C6.7 10 3.4 10 0 10 C0 6.7 0 3.4 0 0 Z " fill="#955C44" transform="translate(50,100)"/>
<path d="M0 0 C3.3 0 6.6 0 10 0 C10 3.3 10 6.6 10 10 C6.7 10 3.4 10 0 10 C0 6.7 0 3.4 0 0 Z " fill="#542E1E" transform="translate(100,100)"/>
<path d="M0 0 C3.3 0 6.6 0 10 0 C10 3.3 10 6.6 10 10 C6.7 10 3.4 10 0 10 C0 6.7 0 3.4 0 0 Z " fill="#552E1B" transform="translate(60,100)"/>
<path d="M0 0 C3.3 0 6.6 0 10 0 C10 3.3 10 6.6 10 10 C6.7 10 3.4 10 0 10 C0 6.7 0 3.4 0 0 Z " fill="#552E1D" transform="translate(90,90)"/>
<path d="M0 0 C3.3 0 6.6 0 10 0 C10 3.3 10 6.6 10 10 C6.7 10 3.4 10 0 10 C0 6.7 0 3.4 0 0 Z " fill="#552E1D" transform="translate(50,90)"/>
<path d="M0 0 C3.3 0 6.6 0 10 0 C10 3.3 10 6.6 10 10 C6.7 10 3.4 10 0 10 C0 6.7 0 3.4 0 0 Z " fill="#6F3F2F" transform="translate(40,90)"/>
<path d="M0 0 C3.3 0 6.6 0 10 0 C10 3.3 10 6.6 10 10 C6.7 10 3.4 10 0 10 C0 6.7 0 3.4 0 0 Z " fill="#3F2115" transform="translate(130,80)"/>
<path d="M0 0 C3.3 0 6.6 0 10 0 C10 3.3 10 6.6 10 10 C6.7 10 3.4 10 0 10 C0 6.7 0 3.4 0 0 Z " fill="#673726" transform="translate(70,80)"/>
<path d="M0 0 C3.3 0 6.6 0 10 0 C10 3.3 10 6.6 10 10 C6.7 10 3.4 10 0 10 C0 6.7 0 3.4 0 0 Z " fill="#7A4736" transform="translate(50,80)"/>
<path d="M0 0 C3.3 0 6.6 0 10 0 C10 3.3 10 6.6 10 10 C6.7 10 3.4 10 0 10 C0 6.7 0 3.4 0 0 Z " fill="#542E1D" transform="translate(40,80)"/>
<path d="M0 0 C3.3 0 6.6 0 10 0 C10 3.3 10 6.6 10 10 C6.7 10 3.4 10 0 10 C0 6.7 0 3.4 0 0 Z " fill="#522F1E" transform="translate(130,70)"/>
<path d="M0 0 C3.3 0 6.6 0 10 0 C10 3.3 10 6.6 10 10 C6.7 10 3.4 10 0 10 C0 6.7 0 3.4 0 0 Z " fill="#7C4635" transform="translate(110,70)"/>
<path d="M0 0 C3.3 0 6.6 0 10 0 C10 3.3 10 6.6 10 10 C6.7 10 3.4 10 0 10 C0 6.7 0 3.4 0 0 Z " fill="#552E1D" transform="translate(100,70)"/>
<path d="M0 0 C3.3 0 6.6 0 10 0 C10 3.3 10 6.6 10 10 C6.7 10 3.4 10 0 10 C0 6.7 0 3.4 0 0 Z " fill="#965C44" transform="translate(80,70)"/>
<path d="M0 0 C3.3 0 6.6 0 10 0 C10 3.3 10 6.6 10 10 C6.7 10 3.4 10 0 10 C0 6.7 0 3.4 0 0 Z " fill="#562D1C" transform="translate(90,60)"/>
<path d="M0 0 C3.3 0 6.6 0 10 0 C10 3.3 10 6.6 10 10 C6.7 10 3.4 10 0 10 C0 6.7 0 3.4 0 0 Z " fill="#552E1C" transform="translate(120,60)"/>
<path d="M0 0 C3.3 0 6.6 0 10 0 C10 3.3 10 6.6 10 10 C6.7 10 3.4 10 0 10 C0 6.7 0 3.4 0 0 Z " fill="#8C523D" transform="translate(110,60)"/>
<path d="M0 0 C3.3 0 6.6 0 10 0 C10 3.3 10 6.6 10 10 C6.7 10 3.4 10 0 10 C0 6.7 0 3.4 0 0 Z " fill="#4E2618" transform="translate(140,50)"/>
<path d="M0 0 C3.3 0 6.6 0 10 0 C10 3.3 10 6.6 10 10 C6.7 10 3.4 10 0 10 C0 6.7 0 3.4 0 0 Z " fill="#4D2719" transform="translate(130,40)"/>
<path d="M0 0 C3.3 0 6.6 0 10 0 C10 3.3 10 6.6 10 10 C6.7 10 3.4 10 0 10 C0 6.7 0 3.4 0 0 Z " fill="#4D2619" transform="translate(80,40)"/>
<path d="M0 0 C3.3 0 6.6 0 10 0 C10 3.3 10 6.6 10 10 C6.7 10 3.4 10 0 10 C0 6.7 0 3.4 0 0 Z " fill="#8B523C" transform="translate(120,40)"/>
<path d="M0 0 C3.3 0 6.6 0 10 0 C10 3.3 10 6.6 10 10 C6.7 10 3.4 10 0 10 C0 6.7 0 3.4 0 0 Z " fill="#28160E" transform="translate(110,120)"/>
<path d="M0 0 C6.93359375 -0.09765625 6.93359375 -0.09765625 9 0 C10 1 10 1 10.09765625 3.06640625 C10.06510417 5.37760417 10.03255208 7.68880208 10 10 C6.7 10 3.4 10 0 10 C0 6.7 0 3.4 0 0 Z " fill="#663727" transform="translate(60,70)"/>
<path d="M0 0 C3.3 0 6.6 0 10 0 C10.09765625 6.93359375 10.09765625 6.93359375 10 9 C9 10 9 10 6.93359375 10.09765625 C3.46679688 10.04882812 3.46679688 10.04882812 0 10 C0 6.7 0 3.4 0 0 Z " fill="#4F2617" transform="translate(60,60)"/>
<path d="M0 0 C3.3 0 6.6 0 10 0 C10 3.3 10 6.6 10 10 C7.03 10 4.06 10 1 10 C-0.60725635 6.78548731 -0.05748185 3.56387464 0 0 Z " fill="#713E2D" transform="translate(110,80)"/>
<path d="M0 0 C0.02688151 1.64574566 0.04634123 3.29161413 0.0625 4.9375 C0.07410156 5.85402344 0.08570312 6.77054688 0.09765625 7.71484375 C0 10 0 10 -1 11 C-3.67058851 11.14115161 -6.32432238 11.04247107 -9 11 C-10.1577506 7.52674819 -10.06866652 4.63932552 -10 1 C-8.5209084 0.83266843 -7.04172444 0.66615314 -5.5625 0.5 C-4.32693359 0.36078125 -4.32693359 0.36078125 -3.06640625 0.21875 C-1 0 -1 0 0 0 Z " fill="#8C513D" transform="translate(110,49)"/>
<path d="M0 0 C13.2 0 26.4 0 40 0 C40 2.97 40 5.94 40 9 C39.67 9 39.34 9 39 9 C39 6.36 39 3.72 39 1 C34.05157999 1.0687386 29.10401629 1.15663469 24.15625 1.26245117 C22.47242715 1.29574435 20.78849152 1.32376256 19.10449219 1.34643555 C16.68635914 1.37990205 14.26926376 1.43221036 11.8515625 1.48828125 C10.71867294 1.49786613 10.71867294 1.49786613 9.56289673 1.50764465 C7.21354099 1.53980318 7.21354099 1.53980318 4 2 C2.0549 4.91765 1.54723683 6.62537285 1 10 C0.67 10 0.34 10 0 10 C0 6.7 0 3.4 0 0 Z " fill="#44291D" transform="translate(90,30)"/>
<path d="M0 0 C3.3 0 6.6 0 10 0 C10 3.3 10 6.6 10 10 C9.34 9.67 8.68 9.34 8 9 C8 7.35 8 5.7 8 4 C5.36 3.34 2.72 2.68 0 2 C0 1.34 0 0.68 0 0 Z " fill="#462920" transform="translate(140,50)"/>
<path d="M0 0 C2.97 0 5.94 0 9 0 C9 0.33 9 0.66 9 1 C6.36 1.66 3.72 2.32 1 3 C1.33 4.98 1.66 6.96 2 9 C1.34 9 0.68 9 0 9 C0 6.03 0 3.06 0 0 Z " fill="#452920" transform="translate(60,60)"/>
<path d="M0 0 C2.97 0 5.94 0 9 0 C9 0.33 9 0.66 9 1 C7.02 1.33 5.04 1.66 3 2 C2.34 4.31 1.68 6.62 1 9 C0.67 9 0.34 9 0 9 C0 6.03 0 3.06 0 0 Z " fill="#46281F" transform="translate(70,50)"/>
</svg>
